<svg id="Capa_1" enable-background="new 0 0 512 512" height="512" viewBox="0 0 512 512" width="512" xmlns="http://www.w3.org/2000/svg" xmlns:xlink="http://www.w3.org/1999/xlink"><linearGradient id="lg1"><stop offset="0" stop-color="#a8d4ff"/><stop offset="1" stop-color="#94beff"/></linearGradient><linearGradient id="SVGID_1_" gradientUnits="userSpaceOnUse" x1="74.981" x2="437.019" xlink:href="#lg1" y1="74.981" y2="437.019"/><linearGradient id="SVGID_2_" gradientUnits="userSpaceOnUse" x1="60" x2="452" y1="256" y2="256"><stop offset="0" stop-color="#edf6ff"/><stop offset="1" stop-color="#d4e9ff"/></linearGradient><linearGradient id="SVGID_3_" gradientUnits="userSpaceOnUse" x1="112.684" x2="368.342" xlink:href="#lg1" y1="256" y2="256"/><g><circle cx="256" cy="256" fill="url(#SVGID_1_)" r="256"/><g><circle cx="256" cy="256" fill="url(#SVGID_2_)" r="196"/><path d="m256 105.938c-65.441 0-121.099 41.89-141.621 100.319l-1.695 94.368c19 61.085 75.978 105.437 143.316 105.437l112.342-123.226v-126.327c-27.491-31.02-67.634-50.571-112.342-50.571z" fill="url(#SVGID_3_)"/><path d="m200.989 169.899h22.969v22.969h-22.969z" fill="#94beff"/><path d="m156.511 206.255v52.862c0 23.894-19.367 43.261-43.261 43.261-4.751-14.6-7.312-30.195-7.312-46.378 0-17.435 2.976-34.174 8.44-49.745z" fill="#54ab72"/><path d="m368.34 156.511h-89.371v49.744h39.212c13.738 0 24.872 11.134 24.872 24.872s-11.134 24.872-24.872 24.872h-65.547c-25.618 0-46.378 20.76-46.378 46.378 0 17.344 9.675 33.238 25.088 41.205l24.656 12.736v49.745c82.874 0 150.062-67.188 150.062-150.062 0-38.172-14.251-73.009-37.722-99.49z" fill="#47965c"/></g></g></svg>